<mxfile host="app.diagrams.net" modified="2020-10-14T11:11:50.608Z" agent="5.0 (Windows NT 10.0; Win64; x64) AppleWebKit/537.36 (KHTML, like Gecko) Chrome/86.0.4240.75 Safari/537.36" etag="LW-G4tsYYa41j0KRPEi1" version="13.8.0" type="github">
  <diagram id="u-bATDFUxkpWub2HbcI-" name="Page-1">
    <mxGraphModel dx="1422" dy="762" grid="1" gridSize="10" guides="1" tooltips="1" connect="1" arrows="1" fold="1" page="1" pageScale="1" pageWidth="827" pageHeight="1169" math="0" shadow="0">
      <root>
        <mxCell id="0" />
        <mxCell id="1" parent="0" />
        <mxCell id="x_PmbxOotKNVlHbJFPFk-1" value="Vivense&lt;br&gt;API&lt;br&gt;Gateway" style="outlineConnect=0;dashed=0;verticalLabelPosition=bottom;verticalAlign=top;align=center;html=1;shape=mxgraph.aws3.api_gateway;fillColor=#D9A741;gradientColor=none;" vertex="1" parent="1">
          <mxGeometry x="349" y="220" width="76.5" height="93" as="geometry" />
        </mxCell>
        <mxCell id="x_PmbxOotKNVlHbJFPFk-2" value="Identity Service" style="outlineConnect=0;dashed=0;verticalLabelPosition=bottom;verticalAlign=top;align=center;html=1;shape=mxgraph.aws3.emr;fillColor=#F58534;gradientColor=none;" vertex="1" parent="1">
          <mxGeometry x="640" y="39" width="67.5" height="81" as="geometry" />
        </mxCell>
        <mxCell id="x_PmbxOotKNVlHbJFPFk-3" value="Catalog Service" style="outlineConnect=0;dashed=0;verticalLabelPosition=bottom;verticalAlign=top;align=center;html=1;shape=mxgraph.aws3.emr;fillColor=#F58534;gradientColor=none;" vertex="1" parent="1">
          <mxGeometry x="640" y="160" width="67.5" height="81" as="geometry" />
        </mxCell>
        <mxCell id="x_PmbxOotKNVlHbJFPFk-4" value="3.Party&lt;br&gt;Integrator" style="verticalLabelPosition=bottom;html=1;verticalAlign=top;align=center;strokeColor=none;fillColor=#00BEF2;shape=mxgraph.azure.computer;pointerEvents=1;" vertex="1" parent="1">
          <mxGeometry x="70" y="244" width="50" height="45" as="geometry" />
        </mxCell>
        <mxCell id="x_PmbxOotKNVlHbJFPFk-5" value="" style="endArrow=classic;startArrow=classic;html=1;exitX=1;exitY=0.5;exitDx=0;exitDy=0;exitPerimeter=0;" edge="1" parent="1" source="x_PmbxOotKNVlHbJFPFk-4" target="x_PmbxOotKNVlHbJFPFk-1">
          <mxGeometry width="50" height="50" relative="1" as="geometry">
            <mxPoint x="400" y="340" as="sourcePoint" />
            <mxPoint x="450" y="290" as="targetPoint" />
          </mxGeometry>
        </mxCell>
        <mxCell id="x_PmbxOotKNVlHbJFPFk-6" value="" style="endArrow=classic;startArrow=classic;html=1;entryX=0;entryY=0.21;entryDx=0;entryDy=0;entryPerimeter=0;" edge="1" parent="1" source="x_PmbxOotKNVlHbJFPFk-1" target="x_PmbxOotKNVlHbJFPFk-2">
          <mxGeometry width="50" height="50" relative="1" as="geometry">
            <mxPoint x="400" y="340" as="sourcePoint" />
            <mxPoint x="450" y="290" as="targetPoint" />
          </mxGeometry>
        </mxCell>
        <mxCell id="x_PmbxOotKNVlHbJFPFk-7" value="" style="endArrow=classic;startArrow=classic;html=1;entryX=0;entryY=0.21;entryDx=0;entryDy=0;entryPerimeter=0;" edge="1" parent="1" source="x_PmbxOotKNVlHbJFPFk-1" target="x_PmbxOotKNVlHbJFPFk-3">
          <mxGeometry width="50" height="50" relative="1" as="geometry">
            <mxPoint x="400" y="340" as="sourcePoint" />
            <mxPoint x="450" y="290" as="targetPoint" />
          </mxGeometry>
        </mxCell>
        <mxCell id="x_PmbxOotKNVlHbJFPFk-8" value="https://api.vivense.com/v1/{EP}" style="text;html=1;strokeColor=none;fillColor=none;align=center;verticalAlign=middle;whiteSpace=wrap;rounded=0;" vertex="1" parent="1">
          <mxGeometry x="210" y="241" width="40" height="20" as="geometry" />
        </mxCell>
        <mxCell id="x_PmbxOotKNVlHbJFPFk-9" value="Order Service" style="outlineConnect=0;dashed=0;verticalLabelPosition=bottom;verticalAlign=top;align=center;html=1;shape=mxgraph.aws3.emr;fillColor=#F58534;gradientColor=none;" vertex="1" parent="1">
          <mxGeometry x="640" y="280" width="67.5" height="81" as="geometry" />
        </mxCell>
        <mxCell id="x_PmbxOotKNVlHbJFPFk-10" value="Finance Service" style="outlineConnect=0;dashed=0;verticalLabelPosition=bottom;verticalAlign=top;align=center;html=1;shape=mxgraph.aws3.emr;fillColor=#F58534;gradientColor=none;" vertex="1" parent="1">
          <mxGeometry x="640" y="400" width="67.5" height="81" as="geometry" />
        </mxCell>
        <mxCell id="x_PmbxOotKNVlHbJFPFk-11" value="" style="endArrow=classic;startArrow=classic;html=1;entryX=0;entryY=0.21;entryDx=0;entryDy=0;entryPerimeter=0;" edge="1" parent="1" source="x_PmbxOotKNVlHbJFPFk-1" target="x_PmbxOotKNVlHbJFPFk-9">
          <mxGeometry width="50" height="50" relative="1" as="geometry">
            <mxPoint x="400" y="340" as="sourcePoint" />
            <mxPoint x="450" y="290" as="targetPoint" />
          </mxGeometry>
        </mxCell>
        <mxCell id="x_PmbxOotKNVlHbJFPFk-12" value="" style="endArrow=classic;startArrow=classic;html=1;entryX=0;entryY=0.21;entryDx=0;entryDy=0;entryPerimeter=0;exitX=1;exitY=0.8;exitDx=0;exitDy=0;exitPerimeter=0;" edge="1" parent="1" source="x_PmbxOotKNVlHbJFPFk-1" target="x_PmbxOotKNVlHbJFPFk-10">
          <mxGeometry width="50" height="50" relative="1" as="geometry">
            <mxPoint x="400" y="340" as="sourcePoint" />
            <mxPoint x="450" y="290" as="targetPoint" />
          </mxGeometry>
        </mxCell>
      </root>
    </mxGraphModel>
  </diagram>
</mxfile>
